<?xml version="1.0" encoding="UTF-8" standalone="no"?>
<svg
   xmlns:dc="http://purl.org/dc/elements/1.1/"
   xmlns:cc="http://creativecommons.org/ns#"
   xmlns:rdf="http://www.w3.org/1999/02/22-rdf-syntax-ns#"
   xmlns:svg="http://www.w3.org/2000/svg"
   xmlns="http://www.w3.org/2000/svg"
   xmlns:sodipodi="http://sodipodi.sourceforge.net/DTD/sodipodi-0.dtd"
   xmlns:inkscape="http://www.inkscape.org/namespaces/inkscape"
   version="1.1"
   width="603.02423"
   height="603.02423"
   style="clip-rule:evenodd;fill-rule:evenodd;image-rendering:optimizeQuality;shape-rendering:geometricPrecision;text-rendering:geometricPrecision"
   id="svg46"
   sodipodi:docname="kiyosito_logo.svg"
   inkscape:version="0.92.5 (2060ec1f9f, 2020-04-08)"
   inkscape:export-filename="/home/felipe/Kiyosito/logo/logo_try1.png"
   inkscape:export-xdpi="148"
   inkscape:export-ydpi="148">
  <metadata
     id="metadata52">
    <rdf:RDF>
      <cc:Work
         rdf:about="">
        <dc:format>image/svg+xml</dc:format>
        <dc:type
           rdf:resource="http://purl.org/dc/dcmitype/StillImage" />
        <dc:title></dc:title>
      </cc:Work>
    </rdf:RDF>
  </metadata>
  <defs
     id="defs50" />
  <sodipodi:namedview
     pagecolor="#ffffff"
     bordercolor="#666666"
     borderopacity="1"
     objecttolerance="10"
     gridtolerance="10"
     guidetolerance="10"
     inkscape:pageopacity="0"
     inkscape:pageshadow="2"
     inkscape:window-width="1848"
     inkscape:window-height="1016"
     id="namedview48"
     showgrid="true"
     inkscape:zoom="0.5"
     inkscape:cx="432.87817"
     inkscape:cy="264.83757"
     inkscape:window-x="72"
     inkscape:window-y="27"
     inkscape:window-maximized="1"
     inkscape:current-layer="g952">
    <inkscape:grid
       type="xygrid"
       id="grid889"
       originx="192.66731"
       originy="201.58553" />
  </sodipodi:namedview>
  <g
     id="g952"
     transform="matrix(3.2250999,0,0,3.2250999,-27.69337,-21.234596)">
    <g
       id="g4" />
    <g
       id="g12" />
    <g
       id="g838"
       transform="translate(3.0419554,1.433878e-4)">
      <path
         sodipodi:nodetypes="scccccccccccccccccccccccsscccss"
         inkscape:connector-curvature="0"
         id="path6"
         d="M 99.064883,6.5847719 C 77.160567,6.4829389 56.305685,15.024697 36.500205,32.000045 c -5.4753,0.9889 -11.142443,0.822427 -17.000443,0.500227 v 2.269732 3.729961 c 0.696901,2.923199 1.69705,5.756721 3.00015,8.50022 -3.559,6.285201 -6.725769,12.784959 -9.500069,19.499762 -8.5289101,29.441397 -4.6952096,57.108093 11.50037,83.000093 2.4492,1.41 4.61582,3.07585 6.49992,0.99985 0.133783,-1.07016 -0.322747,-1.9884 -0.339137,-2.91658 -0.02743,-1.55339 -0.216806,-2.77864 -0.233157,-4.4863 -0.0094,-0.98001 0.117805,-2.31353 0.170174,-3.43012 0.07358,-1.56864 0.582638,-3.22279 0.40212,-4.66677 -12.4913,-27.084 -11.158003,-55.916814 3.999997,-81.500015 42.428999,-1.163198 84.92868,-1.330127 127.49968,-0.500227 l 1.50008,1.500075 c 15.718,26.326799 16.55092,53.160177 2.49992,80.500167 0.869,5.129 1.20245,10.29577 1.00045,15.49977 1.699,0.15999 3.36585,-0.006 4.99985,-0.49963 2.537,-2.906 4.70392,-6.07306 6.49992,-9.50006 15.058,-31.88401 13.89123,-63.050614 -3.49977,-93.500015 2.421,-4.5339 3.42054,-9.367213 2.99954,-14.499913 -5.344,0.166 -10.67699,-8.37e-4 -15.99999,-0.500227 -5.127,-5.0607 -10.79283,-9.393839 -16.99984,-12.999839 C 129.53029,10.770909 114.05205,6.6544471 99.064883,6.5847719 Z M 98.553755,20.473029 c 10.524485,-0.03261 21.173215,2.143212 31.946075,6.527171 2.891,1.2742 5.558,2.773818 8,4.499619 -26.172,0.331099 -52.171643,-0.002 -77.999643,-0.999848 10.606217,-5.638595 21.346142,-8.899106 32.219811,-9.781674 1.940461,-0.157498 3.884782,-0.23923 5.833757,-0.245268 z"
         style="opacity:1;fill:#eb1f26;stroke-width:0.99999994" />
      <g
         transform="translate(2.1704753)"
         id="g853">
        <g
           transform="translate(4)"
           id="g24">
          <path
             inkscape:connector-curvature="0"
             id="path22"
             d="m 68.5,62.5 c 8,0 16,0 24,0 -0.4722,33.7157 0.0278,67.382 1.5,101 2.6253,4.745 6.459,8.245 11.5,10.5 9.661,0.5 19.328,0.666 29,0.5 0,6.333 0,12.667 0,19 -12.005,0.167 -24.005,0 -36,-0.5 C 83.4965,189.328 73.6631,180.162 69,165.5 68.5,131.168 68.3333,96.835 68.5,62.5 Z"
             style="opacity:1;fill:#eb2128" />
        </g>
        <g
           transform="rotate(-180,46,117.01466)"
           id="g28">
          <path
             sodipodi:nodetypes="ccccccc"
             inkscape:connector-curvature="0"
             id="path26"
             d="m 38.5,66.5 h 20 c -1.1394,30.3447 -2.6394,60.678 -4.5,91 -1.159093,8.20113 0.595332,9.93939 -8,9.52932 -1.8197,-0.149 -10.8197,0.184 -12,-1 -0.157439,-5.88301 0.202673,-9.33202 1,-18.52932 1.5386,-26.988 2.7052,-53.9878 3.5,-81 z"
             style="opacity:1;fill:#eb2228" />
        </g>
        <g
           transform="matrix(1,0,0,1.144453,6,-9.6061248)"
           id="g32">
          <path
             sodipodi:nodetypes="ccssccccccc"
             inkscape:connector-curvature="0"
             id="path30"
             d="m 123.5,100.5 c -0.03,10.529 0.637,20.862 2,31 -0.0883,0.67816 0.0667,0.82805 0.24813,1.67405 0.26364,1.22926 0.64203,3.15674 0.90101,3.89083 1.03246,2.92659 2.96122,3.42617 6.75128,3.7128 L 134.56568,154.5 H 116.5 c -4.279,-1.112 -7.113,-3.779 -8.5,-8 -1.417,-26.679 -2.917,-53.3458 -4.5,-80 h 19 c 0.407,11.3306 0.741,22.664 1,34 z"
             style="opacity:1;fill:#eb1f26" />
        </g>
        <g
           transform="matrix(1,0,0,0.98807047,5.6711233,0.79190611)"
           id="g36">
          <path
             inkscape:connector-curvature="0"
             id="path34"
             d="m 154.5,168.5 c -6.667,0 -13.333,0 -20,0 -1.976,-28.3239 -3.809,-56.657 -5.5,-85 -1.789,-1.729 -3.956,-2.396 -6.5,-2 0,-5 0,-10 0,-15 6.425,-0.37 12.758,0.13 19,1.5 4.27,1.679 6.77,4.845 7.5,9.5 2.023,30.328 3.857,60.661 5.5,91 z"
             style="opacity:1;fill:#eb2128" />
        </g>
      </g>
    </g>
  </g>
</svg>
